<?xml version="1.0" encoding="UTF-8" standalone="no"?>
<!-- Created with Inkscape (http://www.inkscape.org/) -->

<svg
   xmlns:dc="http://purl.org/dc/elements/1.1/"
   xmlns:cc="http://creativecommons.org/ns#"
   xmlns:rdf="http://www.w3.org/1999/02/22-rdf-syntax-ns#"
   xmlns:svg="http://www.w3.org/2000/svg"
   xmlns="http://www.w3.org/2000/svg"
   xmlns:sodipodi="http://sodipodi.sourceforge.net/DTD/sodipodi-0.dtd"
   xmlns:inkscape="http://www.inkscape.org/namespaces/inkscape"
   width="159.4108"
   height="159.4108"
   id="svg2"
   version="1.1"
   inkscape:version="0.47 r22583"
   sodipodi:docname="ocra.svg"
   inkscape:export-filename="/home/phil/badges/ocra.png"
   inkscape:export-xdpi="56.459999"
   inkscape:export-ydpi="56.459999">
  <defs
     id="defs4">
    <inkscape:perspective
       sodipodi:type="inkscape:persp3d"
       inkscape:vp_x="0 : 526.18109 : 1"
       inkscape:vp_y="0 : 1000 : 0"
       inkscape:vp_z="744.09448 : 526.18109 : 1"
       inkscape:persp3d-origin="372.04724 : 350.78739 : 1"
       id="perspective10" />
    <inkscape:perspective
       id="perspective2863"
       inkscape:persp3d-origin="0.5 : 0.33333333 : 1"
       inkscape:vp_z="1 : 0.5 : 1"
       inkscape:vp_y="0 : 1000 : 0"
       inkscape:vp_x="0 : 0.5 : 1"
       sodipodi:type="inkscape:persp3d" />
    <inkscape:perspective
       id="perspective2891"
       inkscape:persp3d-origin="0.5 : 0.33333333 : 1"
       inkscape:vp_z="1 : 0.5 : 1"
       inkscape:vp_y="0 : 1000 : 0"
       inkscape:vp_x="0 : 0.5 : 1"
       sodipodi:type="inkscape:persp3d" />
    <inkscape:perspective
       id="perspective2891-5"
       inkscape:persp3d-origin="0.5 : 0.33333333 : 1"
       inkscape:vp_z="1 : 0.5 : 1"
       inkscape:vp_y="0 : 1000 : 0"
       inkscape:vp_x="0 : 0.5 : 1"
       sodipodi:type="inkscape:persp3d" />
    <inkscape:perspective
       id="perspective2922"
       inkscape:persp3d-origin="0.5 : 0.33333333 : 1"
       inkscape:vp_z="1 : 0.5 : 1"
       inkscape:vp_y="0 : 1000 : 0"
       inkscape:vp_x="0 : 0.5 : 1"
       sodipodi:type="inkscape:persp3d" />
    <inkscape:perspective
       id="perspective2944"
       inkscape:persp3d-origin="0.5 : 0.33333333 : 1"
       inkscape:vp_z="1 : 0.5 : 1"
       inkscape:vp_y="0 : 1000 : 0"
       inkscape:vp_x="0 : 0.5 : 1"
       sodipodi:type="inkscape:persp3d" />
  </defs>
  <sodipodi:namedview
     id="base"
     pagecolor="#ffffff"
     bordercolor="#666666"
     borderopacity="1.0"
     inkscape:pageopacity="0.0"
     inkscape:pageshadow="2"
     inkscape:zoom="3.3686551"
     inkscape:cx="132.1002"
     inkscape:cy="79.705398"
     inkscape:document-units="px"
     inkscape:current-layer="layer1"
     showgrid="false"
     inkscape:window-width="638"
     inkscape:window-height="390"
     inkscape:window-x="640"
     inkscape:window-y="16"
     inkscape:window-maximized="0" />
  <metadata
     id="metadata7">
    <rdf:RDF>
      <cc:Work
         rdf:about="">
        <dc:format>image/svg+xml</dc:format>
        <dc:type
           rdf:resource="http://purl.org/dc/dcmitype/StillImage" />
        <dc:title></dc:title>
      </cc:Work>
    </rdf:RDF>
  </metadata>
  <g
     inkscape:label="Layer 1"
     inkscape:groupmode="layer"
     id="layer1"
     transform="translate(-292.34184,-446.47569)">
    <path
       sodipodi:type="arc"
       style="fill:#00ff00;fill-opacity:1;stroke:#000000;stroke-width:2.51999998;stroke-miterlimit:4;stroke-opacity:1;stroke-dasharray:none"
       id="path3740"
       sodipodi:cx="300.80075"
       sodipodi:cy="502.33426"
       sodipodi:rx="70.474861"
       sodipodi:ry="70.474861"
       d="m 371.27561,502.33426 c 0,38.92219 -31.55267,70.47486 -70.47486,70.47486 -38.92219,0 -70.47486,-31.55267 -70.47486,-70.47486 0,-38.92219 31.55267,-70.47486 70.47486,-70.47486 38.92219,0 70.47486,31.55267 70.47486,70.47486 z"
       transform="matrix(1.1111111,0,0,1.1111111,37.824188,-31.96808)" />
    <g
       id="g3742"
       transform="translate(74.417905,27.007834)">
      <path
         sodipodi:nodetypes="cccccccccccccc"
         id="path2958"
         d="m 266.80628,463.16981 c 6.52509,-6.70781 16.40893,-20.96426 26.57419,-22.49976 8.24909,-1.05721 14.79868,5.29464 20.72155,10.05933 6.33721,5.93882 13.77202,8.47439 21.90983,11.36513 6.59042,2.43174 14.43041,7.73786 15.92809,15.35785 2.43597,8.95237 -2.20912,19.06268 -5.11636,27.327 -2.89495,7.44919 0.34072,17.13018 -0.93771,24.69805 -1.98007,10.03384 -8.39714,16.2225 -17.6889,20.64804 -11.75032,4.07584 -24.03892,-4.40682 -35.73259,0.3876 -8.83121,2.7297 -19.58048,5.87118 -27.75706,-0.23906 -8.14294,-6.21372 -9.42755,-17.07839 -10.64372,-26.51103 -1.57905,-8.31659 -6.72226,-15.20004 -11.17118,-22.14581 -2.5142,-5.83689 -6.40309,-13.49728 -2.78781,-19.56109 6.39379,-9.37595 16.09695,-10.14899 26.70167,-18.88625 z"
         style="fill:#008000;fill-opacity:1;stroke:#000000;stroke-width:2.79999995;stroke-linecap:butt;stroke-linejoin:miter;stroke-miterlimit:4;stroke-opacity:1;stroke-dasharray:none" />
      <g
         style="fill:#ffffff;fill-opacity:1"
         transform="translate(61.294227,-0.5400372)"
         id="g2869">
        <path
           transform="translate(-63.724395,-4.5903166)"
           d="m 310.52141,477.62753 c 0,7.53092 -5.19833,13.63594 -11.6108,13.63594 -6.41246,0 -11.6108,-6.10502 -11.6108,-13.63594 0,-7.53092 5.19834,-13.63594 11.6108,-13.63594 6.41247,0 11.6108,6.10502 11.6108,13.63594 z"
           sodipodi:ry="13.635941"
           sodipodi:rx="11.610801"
           sodipodi:cy="477.62753"
           sodipodi:cx="298.91061"
           id="path2881"
           style="fill:#ffffff;fill-opacity:1;stroke:#000000;stroke-width:3;stroke-miterlimit:4;stroke-opacity:1;stroke-dasharray:none"
           sodipodi:type="arc" />
        <path
           transform="matrix(0.86482878,0.50206692,-0.50206692,0.86482878,202.97977,-40.013481)"
           d="m 310.52141,477.62753 c 0,7.53092 -5.19833,13.63594 -11.6108,13.63594 -6.41246,0 -11.6108,-6.10502 -11.6108,-13.63594 0,-7.53092 5.19834,-13.63594 11.6108,-13.63594 6.41247,0 11.6108,6.10502 11.6108,13.63594 z"
           sodipodi:ry="13.635941"
           sodipodi:rx="11.610801"
           sodipodi:cy="477.62753"
           sodipodi:cx="298.91061"
           id="path2881-0"
           style="fill:#ffffff;fill-opacity:1;stroke:#000000;stroke-width:3;stroke-miterlimit:4;stroke-opacity:1;stroke-dasharray:none"
           sodipodi:type="arc" />
        <path
           transform="matrix(0.5373386,0.8433666,-0.8433666,0.5373386,504.65701,-17.745471)"
           d="m 310.52141,477.62753 c 0,7.53092 -5.19833,13.63594 -11.6108,13.63594 -6.41246,0 -11.6108,-6.10502 -11.6108,-13.63594 0,-7.53092 5.19834,-13.63594 11.6108,-13.63594 6.41247,0 11.6108,6.10502 11.6108,13.63594 z"
           sodipodi:ry="13.635941"
           sodipodi:rx="11.610801"
           sodipodi:cy="477.62753"
           sodipodi:cx="298.91061"
           id="path2881-03"
           style="fill:#ffffff;fill-opacity:1;stroke:#000000;stroke-width:3;stroke-miterlimit:4;stroke-opacity:1;stroke-dasharray:none"
           sodipodi:type="arc" />
        <path
           transform="matrix(-0.43638541,0.89975984,0.89975984,0.43638541,-88.69532,15.506144)"
           d="m 310.52141,477.62753 c 0,7.53092 -5.19833,13.63594 -11.6108,13.63594 -6.41246,0 -11.6108,-6.10502 -11.6108,-13.63594 0,-7.53092 5.19834,-13.63594 11.6108,-13.63594 6.41247,0 11.6108,6.10502 11.6108,13.63594 z"
           sodipodi:ry="13.635941"
           sodipodi:rx="11.610801"
           sodipodi:cy="477.62753"
           sodipodi:cx="298.91061"
           id="path2881-03-4"
           style="fill:#ffffff;fill-opacity:1;stroke:#000000;stroke-width:3;stroke-miterlimit:4;stroke-opacity:1;stroke-dasharray:none"
           sodipodi:type="arc" />
        <path
           transform="matrix(-0.82491281,0.56526,0.56526,0.82491281,229.05887,-40.647656)"
           d="m 310.52141,477.62753 c 0,7.53092 -5.19833,13.63594 -11.6108,13.63594 -6.41246,0 -11.6108,-6.10502 -11.6108,-13.63594 0,-7.53092 5.19834,-13.63594 11.6108,-13.63594 6.41247,0 11.6108,6.10502 11.6108,13.63594 z"
           sodipodi:ry="13.635941"
           sodipodi:rx="11.610801"
           sodipodi:cy="477.62753"
           sodipodi:cx="298.91061"
           id="path2881-0-8"
           style="fill:#ffffff;fill-opacity:1;stroke:#000000;stroke-width:3;stroke-miterlimit:4;stroke-opacity:1;stroke-dasharray:none"
           sodipodi:type="arc" />
      </g>
    </g>
  </g>
</svg>
